<svg width="100" height="27" viewBox="0 0 100 27" fill="none" xmlns="http://www.w3.org/2000/svg">
<path d="M9.53576 7.4398C10.1615 5.28021 13.2212 5.28021 13.8469 7.4398V7.4398C14.1249 8.39926 15.0036 9.05949 16.0025 9.05949H16.1081C18.3517 9.05949 19.3538 11.8759 17.6144 13.293L17.1902 13.6387C16.4313 14.257 16.1154 15.2691 16.3878 16.2094L16.5967 16.9303C17.1986 19.0078 14.7616 20.6205 13.0847 19.2542V19.2542C12.2734 18.5932 11.1093 18.5932 10.298 19.2542V19.2542C8.62113 20.6205 6.18407 19.0078 6.78602 16.9303L6.99488 16.2094C7.26731 15.2691 6.95141 14.257 6.19246 13.6387L5.76826 13.293C4.0289 11.8759 5.03099 9.05949 7.27459 9.05949H7.38017C8.37909 9.05949 9.25777 8.39926 9.53576 7.4398V7.4398Z" fill="#914F4D"/>
<path d="M92.1889 9.6005H92.2945C94.0677 9.6005 94.8597 11.8264 93.485 12.9464L93.0608 13.2921C92.1463 14.0371 91.7657 15.2566 92.094 16.3896L92.3028 17.1104C92.7683 18.7171 90.8837 19.9642 89.5869 18.9076C88.5917 18.0968 87.1638 18.0968 86.1686 18.9076C84.8718 19.9642 82.9872 18.7171 83.4527 17.1104L83.6615 16.3896C83.9898 15.2566 83.6092 14.0371 82.6947 13.2921L82.2705 12.9464C80.8958 11.8264 81.6878 9.6005 83.461 9.6005H83.5666C84.788 9.6005 85.8625 8.79318 86.2024 7.61996C86.6887 5.94151 89.0668 5.94151 89.5531 7.61996C89.893 8.79318 90.9675 9.6005 92.1889 9.6005Z" stroke="#914F4D"/>
<path d="M29.1266 7.4398C29.7523 5.28021 32.812 5.28021 33.4378 7.4398V7.4398C33.7157 8.39926 34.5944 9.05949 35.5933 9.05949H35.6989C37.9425 9.05949 38.9446 11.8759 37.2053 13.293L36.7811 13.6387C36.0221 14.257 35.7062 15.2691 35.9786 16.2094L36.1875 16.9303C36.7894 19.0078 34.3524 20.6205 32.6755 19.2542V19.2542C31.8642 18.5932 30.7001 18.5932 29.8889 19.2542V19.2542C28.212 20.6205 25.7749 19.0078 26.3768 16.9303L26.5857 16.2094C26.8581 15.2691 26.5422 14.257 25.7833 13.6387L25.3591 13.293C23.6197 11.8759 24.6218 9.05949 26.8654 9.05949H26.971C27.9699 9.05949 28.8486 8.39926 29.1266 7.4398V7.4398Z" fill="#914F4D"/>
<path d="M54.2706 9.6005H54.3762C56.1494 9.6005 56.9414 11.8264 55.5667 12.9464L55.1425 13.2921C54.228 14.0371 53.8474 15.2566 54.1756 16.3896L54.3845 17.1104C54.85 18.7171 52.9653 19.9642 51.6686 18.9076C50.6734 18.0968 49.2455 18.0968 48.2503 18.9076C46.9535 19.9642 45.0688 18.7171 45.5343 17.1104L45.7432 16.3896C46.0715 15.2566 45.6908 14.0371 44.7764 13.2921L44.3521 12.9464C42.9775 11.8264 43.7695 9.6005 45.5427 9.6005H45.6482C46.8697 9.6005 47.9441 8.79318 48.2841 7.61996C48.7704 5.94151 51.1484 5.94151 51.6348 7.61996C51.9747 8.79318 53.0491 9.6005 54.2706 9.6005Z" stroke="#914F4D"/>
<path d="M72.5978 9.6005H72.7034C74.4766 9.6005 75.2686 11.8264 73.8939 12.9464L73.4697 13.2921C72.5552 14.0371 72.1746 15.2566 72.5028 16.3896L72.7117 17.1104C73.1772 18.7171 71.2926 19.9642 69.9958 18.9076C69.0006 18.0968 67.5727 18.0968 66.5775 18.9076C65.2807 19.9642 63.396 18.7171 63.8615 17.1104L64.0704 16.3896C64.3987 15.2566 64.018 14.0371 63.1036 13.2921L62.6794 12.9464C61.3047 11.8264 62.0967 9.6005 63.8699 9.6005H63.9754C65.1969 9.6005 66.2714 8.79318 66.6113 7.61996C67.0976 5.94151 69.4757 5.94151 69.962 7.61996C70.3019 8.79318 71.3763 9.6005 72.5978 9.6005Z" stroke="#914F4D"/>
</svg>
