<svg width="100" height="27" viewBox="0 0 100 27" fill="none" xmlns="http://www.w3.org/2000/svg">
<path d="M9.53576 7.4398C10.1615 5.28021 13.2212 5.28021 13.8469 7.4398V7.4398C14.1249 8.39926 15.0036 9.05949 16.0025 9.05949H16.1081C18.3517 9.05949 19.3538 11.8759 17.6144 13.293L17.1902 13.6387C16.4313 14.257 16.1154 15.2691 16.3878 16.2094L16.5967 16.9303C17.1986 19.0078 14.7616 20.6205 13.0847 19.2542V19.2542C12.2734 18.5932 11.1093 18.5932 10.298 19.2542V19.2542C8.62113 20.6205 6.18407 19.0078 6.78602 16.9303L6.99488 16.2094C7.26731 15.2691 6.95141 14.257 6.19246 13.6387L5.76826 13.293C4.0289 11.8759 5.03099 9.05949 7.27459 9.05949H7.38017C8.37909 9.05949 9.25777 8.39926 9.53576 7.4398V7.4398Z" fill="#914F4D"/>
<path d="M85.7222 7.48081C86.3479 5.32123 89.4076 5.32123 90.0333 7.48081V7.48081C90.3113 8.44027 91.19 9.1005 92.1889 9.1005H92.2945C94.5381 9.1005 95.5402 11.9169 93.8008 13.3341L93.3766 13.6797C92.6177 14.298 92.3018 15.3101 92.5742 16.2504L92.7831 16.9713C93.385 19.0489 90.948 20.6615 89.2711 19.2952V19.2952C88.4598 18.6342 87.2957 18.6342 86.4844 19.2952V19.2952C84.8075 20.6615 82.3705 19.0489 82.9724 16.9713L83.1813 16.2504C83.4537 15.3101 83.1378 14.2981 82.3789 13.6797L81.9547 13.3341C80.2153 11.9169 81.2174 9.1005 83.461 9.1005H83.5666C84.5655 9.1005 85.4442 8.44027 85.7222 7.48081V7.48081Z" fill="#914F4D"/>
<path d="M29.1266 7.4398C29.7523 5.28021 32.812 5.28021 33.4378 7.4398V7.4398C33.7157 8.39926 34.5944 9.05949 35.5933 9.05949H35.6989C37.9425 9.05949 38.9446 11.8759 37.2053 13.293L36.7811 13.6387C36.0221 14.257 35.7062 15.2691 35.9786 16.2094L36.1875 16.9303C36.7894 19.0078 34.3524 20.6205 32.6755 19.2542V19.2542C31.8642 18.5932 30.7001 18.5932 29.8889 19.2542V19.2542C28.212 20.6205 25.7749 19.0078 26.3768 16.9303L26.5857 16.2094C26.8581 15.2691 26.5422 14.257 25.7833 13.6387L25.3591 13.293C23.6197 11.8759 24.6218 9.05949 26.8654 9.05949H26.971C27.9699 9.05949 28.8486 8.39926 29.1266 7.4398V7.4398Z" fill="#914F4D"/>
<path d="M47.8038 7.48081C48.4295 5.32123 51.4893 5.32123 52.115 7.48081V7.48081C52.393 8.44027 53.2717 9.1005 54.2706 9.1005H54.3762C56.6198 9.1005 57.6219 11.9169 55.8825 13.3341L55.4583 13.6797C54.6994 14.298 54.3834 15.3101 54.6559 16.2504L54.8647 16.9713C55.4667 19.0489 53.0296 20.6615 51.3527 19.2952V19.2952C50.5414 18.6342 49.3774 18.6342 48.5661 19.2952V19.2952C46.8892 20.6615 44.4521 19.0489 45.0541 16.9713L45.2629 16.2504C45.5354 15.3101 45.2195 14.2981 44.4605 13.6797L44.0363 13.3341C42.297 11.9169 43.2991 9.1005 45.5427 9.1005H45.6482C46.6472 9.1005 47.5258 8.44027 47.8038 7.48081V7.48081Z" fill="#914F4D"/>
<path d="M66.131 7.48081C66.7567 5.32123 69.8165 5.32123 70.4422 7.48081V7.48081C70.7202 8.44027 71.5989 9.1005 72.5978 9.1005H72.7034C74.947 9.1005 75.9491 11.9169 74.2097 13.3341L73.7855 13.6797C73.0266 14.298 72.7107 15.3101 72.9831 16.2504L73.1919 16.9713C73.7939 19.0489 71.3568 20.6615 69.6799 19.2952V19.2952C68.8687 18.6342 67.7046 18.6342 66.8933 19.2952V19.2952C65.2164 20.6615 62.7793 19.0489 63.3813 16.9713L63.5902 16.2504C63.8626 15.3101 63.5467 14.2981 62.7877 13.6797L62.3635 13.3341C60.6242 11.9169 61.6263 9.1005 63.8699 9.1005H63.9754C64.9744 9.1005 65.853 8.44027 66.131 7.48081V7.48081Z" fill="#914F4D"/>
</svg>
