<svg fill="none" height="64" viewBox="0 0 64 64" width="64" xmlns="http://www.w3.org/2000/svg"><path clip-rule="evenodd" d="m48.6342 13.3149c-9.7532-9.75319-25.5662-9.75319-35.3193 0-9.75319 9.7531-9.75319 25.5661 0 35.3193 9.7531 9.7532 25.5661 9.7532 35.3193 0s9.7532-25.5662 0-35.3193zm-38.1478-2.8285c11.3153-11.315215 29.661-11.315215 40.9762 0 10.8399 10.8399 11.2953 28.132 1.3662 39.514l8.5854 8.5854c.7811.781.7811 2.0474 0 2.8284-.781.7811-2.0474.7811-2.8284 0l-8.5854-8.5854c-11.382 9.9291-28.6741 9.4737-39.514-1.3662-11.315215-11.3152-11.315215-29.6609 0-40.9762z" fill="rgb(0,0,0)" fill-rule="evenodd"/></svg>