<svg id="Layer_1" enable-background="new 0 0 512 512" height="512" viewBox="0 0 512 512" width="512" xmlns="http://www.w3.org/2000/svg"><path d="m243.353 161.778c.544-8.82 8.158-15.529 16.954-14.985 27.917 1.721 54.025 13.768 73.517 33.922 19.542 20.206 30.705 46.795 31.434 74.871.229 8.833-6.746 16.18-15.579 16.41-.142.003-.282.005-.423.005-8.645 0-15.761-6.893-15.986-15.585-1.065-41.037-33.979-75.159-74.931-77.684-8.82-.544-15.53-8.134-14.986-16.954zm18.121-56.425c78.871 4.119 142.636 69.205 145.167 148.174.277 8.658 7.382 15.488 15.981 15.488.174 0 .348-.003.522-.008 8.832-.283 15.762-7.672 15.479-16.504-1.491-46.549-20.299-90.516-52.956-123.802-32.613-33.24-76.127-52.88-122.525-55.303-8.847-.467-16.352 6.319-16.813 15.144-.459 8.824 6.32 16.35 15.145 16.811zm176.082-28.61c-45.715-46.329-106.617-73.576-171.487-76.724-8.844-.43-16.327 6.38-16.757 15.206-.428 8.826 6.38 16.328 15.206 16.756 116.809 5.668 211.463 101.688 215.491 218.6.298 8.644 7.398 15.449 15.98 15.449.186 0 .373-.003.561-.01 8.831-.304 15.744-7.71 15.439-16.541-2.239-65.018-28.673-126.363-74.433-172.736zm29.76 305.54c19.614 19.615 19.613 51.53 0 71.143l-25.74 25.74c-21.222 21.222-49.363 32.833-79.444 32.834-.709 0-1.415-.007-2.126-.02-28.908-.524-58.333-11.608-82.855-31.208-114.958-91.886-154.028-130.956-245.913-245.913-19.472-24.361-30.555-53.668-31.207-82.522-.7-30.957 10.804-59.895 32.393-81.483l26.16-26.161c19.614-19.614 51.529-19.612 71.144 0l53.366 53.368c9.475 9.475 14.692 22.107 14.692 35.571s-5.218 26.097-14.692 35.571l-21.202 21.202c.131.269.312.584.557.928 64.008 89.787 68.443 94.223 158.229 158.229.344.245.659.425.928.556l21.202-21.201c19.614-19.615 51.528-19.613 71.143-.001zm-22.628 22.626-53.366-53.366c-7.138-7.136-18.751-7.137-25.889 0l-22.36 22.36c-10.627 10.629-27.475 11.335-40.971 1.715-92.223-65.744-99.966-73.487-165.711-165.711-9.619-13.494-8.914-30.342 1.714-40.971l22.361-22.36c7.138-7.138 7.138-18.751 0-25.889l-53.366-53.367c-3.568-3.568-8.258-5.353-12.945-5.353-4.688 0-9.375 1.784-12.944 5.353l-26.16 26.16c-31.365 31.365-30.878 81.286 1.184 121.398 91.011 113.863 127.032 149.885 240.896 240.896h.001c40.111 32.062 90.204 32.376 121.818.763l25.74-25.74c7.136-7.136 7.136-18.75-.002-25.888z"/></svg>