<svg id="Layer_1" enable-background="new 0 0 512 512" height="512" viewBox="0 0 512 512" width="512" xmlns="http://www.w3.org/2000/svg"><path d="m256 97.235c-50.457 0-91.506 41.05-91.506 91.506s41.05 91.506 91.506 91.506 91.506-41.05 91.506-91.506-41.049-91.506-91.506-91.506zm0 151.013c-32.812 0-59.506-26.694-59.506-59.506s26.694-59.506 59.506-59.506 59.506 26.694 59.506 59.506-26.694 59.506-59.506 59.506zm176.245-124.554c-7.946-28.297-22.476-52.802-43.185-72.833-33.418-32.323-81.916-50.861-133.06-50.861s-99.643 18.538-133.06 50.861c-20.709 20.031-35.239 44.535-43.186 72.833-8.564 30.497-9.176 64.684-1.819 101.611 16.569 83.167 72.487 177.854 166.201 281.43 3.033 3.352 7.343 5.265 11.864 5.265s8.831-1.913 11.864-5.266c93.714-103.575 149.632-198.262 166.201-281.43 7.357-36.927 6.745-71.114-1.82-101.61zm-29.563 95.358c-14.731 73.945-64.055 158.972-146.682 252.916-82.627-93.944-131.951-178.971-146.682-252.916-12.075-60.608.329-110.814 35.869-145.19 28.998-28.048 69.905-42.072 110.813-42.072 40.907 0 81.815 14.024 110.813 42.072 35.54 34.376 47.943 84.582 35.869 145.19z"/></svg>