<svg id="Layer_1" enable-background="new 0 0 512 512" height="512" viewBox="0 0 512 512" width="512" xmlns="http://www.w3.org/2000/svg"><path d="m454.609 62.006h-397.218c-31.645 0-57.391 25.746-57.391 57.391v273.205c0 31.646 25.746 57.392 57.391 57.392h397.218c31.646 0 57.391-25.746 57.391-57.392v-273.205c0-31.645-25.746-57.391-57.391-57.391zm0 32c4.933 0 9.539 1.419 13.44 3.863l-212.049 145.469c-22.636-15.529-88.924-61.005-212.049-145.469 3.901-2.444 8.507-3.863 13.44-3.863zm0 323.988h-397.218c-14.001 0-25.391-11.39-25.391-25.391v-264.127c151.96 104.245 214.948 147.459 214.949 147.459 2.727 1.871 5.889 2.807 9.051 2.807s6.324-.936 9.051-2.806l214.949-147.46v264.126c0 14.002-11.39 25.392-25.391 25.392z"/></svg>