<svg fill="none" height="64" viewBox="0 0 64 64" width="64" xmlns="http://www.w3.org/2000/svg"><path clip-rule="evenodd" d="m57.7876 8.66163-31.9163 37.30857 22.34 11.8802c.7542.401 1.6786-.0588 1.814-.9012zm-36.2305 39.54437-16.77514-8.9208c-3.67422-1.9539-3.71814-7.2027-.07711-9.2178l49.50775-27.39947c3.8263-2.117603 8.4128 1.10172 7.7186 5.42012l-7.9566 49.49585c-.5709 3.5512-4.466 5.4864-7.6415 3.7977l-10.9257-5.8101-3.3381 3.3373c-2.9508 2.9502-7.9992 1.4407-8.8448-2.6456zm.7311-4.1413c.1165-.1752.2441-.3444.3826-.5063l30.6455-35.82308-46.67439 25.83148c-.86407.4782-.85366 1.7235.0183 2.1872zm9.4263 9.5429-2.4735 2.4729c-.7006.7005-1.8989.3416-2.0995-.6277l-.9946-4.806z" fill="rgb(0,0,0)" fill-rule="evenodd"/></svg>